<svg width="67" height="67" viewBox="0 0 67 67" fill="none" xmlns="http://www.w3.org/2000/svg">
<g filter="url(#filter0_d)">
<circle cx="33.5" cy="20.5" r="15.5" fill="#F53838"/>
</g>
<path d="M32.8 3.58057C23.5215 3.58057 16 11.1021 16 20.3806C16 29.6591 23.5215 37.1806 32.8 37.1806C42.0785 37.1806 49.6 29.6591 49.6 20.3806C49.6 11.1021 42.0785 3.58057 32.8 3.58057ZM36.7795 15.1901H34.2543C33.955 15.1901 33.6225 15.5838 33.6225 16.1071V17.9306H36.7813L36.3035 20.5311H33.6225V28.3378H30.6423V20.5311H27.9385V17.9306H30.6423V16.4011C30.6423 14.2066 32.1648 12.4233 34.2543 12.4233H36.7795V15.1901Z" fill="white"/>
<defs>
<filter id="filter0_d" x="0" y="0" width="67" height="67" filterUnits="userSpaceOnUse" color-interpolation-filters="sRGB">
<feFlood flood-opacity="0" result="BackgroundImageFix"/>
<feColorMatrix in="SourceAlpha" type="matrix" values="0 0 0 0 0 0 0 0 0 0 0 0 0 0 0 0 0 0 127 0"/>
<feOffset dy="13"/>
<feGaussianBlur stdDeviation="9"/>
<feColorMatrix type="matrix" values="0 0 0 0 0.0658854 0 0 0 0 0.0730469 0 0 0 0 0.1375 0 0 0 0.08 0"/>
<feBlend mode="normal" in2="BackgroundImageFix" result="effect1_dropShadow"/>
<feBlend mode="normal" in="SourceGraphic" in2="effect1_dropShadow" result="shape"/>
</filter>
</defs>
</svg>
