<svg width="66" height="67" viewBox="0 0 66 67" fill="none" xmlns="http://www.w3.org/2000/svg">
<g filter="url(#filter0_d)">
<ellipse cx="33" cy="20.5" rx="15" ry="15.5" fill="#F53838"/>
</g>
<path d="M38.25 20.3806C38.25 21.773 37.6968 23.1083 36.7123 24.0929C35.7277 25.0774 34.3923 25.6306 33 25.6306C31.6076 25.6306 30.2722 25.0774 29.2876 24.0929C28.3031 23.1083 27.75 21.773 27.75 20.3806C27.75 20.0813 27.7815 19.7891 27.8357 19.5056H26V26.5003C26 26.9868 26.3937 27.3806 26.8802 27.3806H39.1215C39.3546 27.3801 39.5781 27.2872 39.7428 27.1221C39.9075 26.9571 40 26.7335 40 26.5003V19.5056H38.1642C38.2185 19.7891 38.25 20.0813 38.25 20.3806ZM33 23.8806C33.4597 23.8805 33.9149 23.7898 34.3396 23.6137C34.7643 23.4377 35.1502 23.1797 35.4752 22.8546C35.8002 22.5294 36.058 22.1434 36.2338 21.7186C36.4096 21.2938 36.5001 20.8386 36.5 20.3788C36.4998 19.9191 36.4092 19.4639 36.2331 19.0392C36.0571 18.6145 35.7991 18.2286 35.474 17.9036C35.1488 17.5786 34.7628 17.3208 34.338 17.145C33.9132 16.9691 33.4579 16.8787 32.9982 16.8788C32.0697 16.8791 31.1793 17.2481 30.523 17.9048C29.8666 18.5615 29.498 19.4521 29.4982 20.3806C29.4984 21.3091 29.8675 22.1994 30.5242 22.8558C31.1809 23.5122 32.0715 23.8808 33 23.8806ZM37.2 16.7056H39.2982C39.4376 16.7056 39.5713 16.6503 39.6701 16.5519C39.7688 16.4535 39.8245 16.32 39.825 16.1806V14.0823C39.825 13.9426 39.7695 13.8086 39.6707 13.7098C39.5719 13.6111 39.4379 13.5556 39.2982 13.5556H37.2C37.0603 13.5556 36.9263 13.6111 36.8275 13.7098C36.7287 13.8086 36.6732 13.9426 36.6732 14.0823V16.1806C36.675 16.4693 36.9112 16.7056 37.2 16.7056ZM33 3.58057C28.5443 3.58057 24.2712 5.35056 21.1206 8.50117C17.9699 11.6518 16.2 15.9249 16.2 20.3806C16.2 24.8362 17.9699 29.1094 21.1206 32.26C24.2712 35.4106 28.5443 37.1806 33 37.1806C35.2062 37.1806 37.3908 36.746 39.429 35.9017C41.4673 35.0575 43.3193 33.82 44.8794 32.26C46.4394 30.6999 47.6769 28.8479 48.5211 26.8097C49.3654 24.7714 49.8 22.5868 49.8 20.3806C49.8 18.1744 49.3654 15.9898 48.5211 13.9515C47.6769 11.9132 46.4394 10.0612 44.8794 8.50117C43.3193 6.94115 41.4673 5.70367 39.429 4.85939C37.3908 4.01511 35.2062 3.58057 33 3.58057ZM41.75 27.1863C41.75 28.2556 40.875 29.1306 39.8057 29.1306H26.1942C25.125 29.1306 24.25 28.2556 24.25 27.1863V13.5748C24.25 12.5056 25.125 11.6306 26.1942 11.6306H39.8057C40.875 11.6306 41.75 12.5056 41.75 13.5748V27.1863Z" fill="white"/>
<defs>
<filter id="filter0_d" x="0" y="0" width="66" height="67" filterUnits="userSpaceOnUse" color-interpolation-filters="sRGB">
<feFlood flood-opacity="0" result="BackgroundImageFix"/>
<feColorMatrix in="SourceAlpha" type="matrix" values="0 0 0 0 0 0 0 0 0 0 0 0 0 0 0 0 0 0 127 0"/>
<feOffset dy="13"/>
<feGaussianBlur stdDeviation="9"/>
<feColorMatrix type="matrix" values="0 0 0 0 0.0658854 0 0 0 0 0.0730469 0 0 0 0 0.1375 0 0 0 0.08 0"/>
<feBlend mode="normal" in2="BackgroundImageFix" result="effect1_dropShadow"/>
<feBlend mode="normal" in="SourceGraphic" in2="effect1_dropShadow" result="shape"/>
</filter>
</defs>
</svg>
