<svg width="67" height="67" viewBox="0 0 67 67" fill="none" xmlns="http://www.w3.org/2000/svg">
<g filter="url(#filter0_d)">
<circle cx="33.5" cy="20.5" r="15.5" fill="#F53838"/>
</g>
<path d="M33.4 3.58057C24.1215 3.58057 16.6 11.1021 16.6 20.3806C16.6 29.6591 24.1215 37.1806 33.4 37.1806C42.6785 37.1806 50.2 29.6591 50.2 20.3806C50.2 11.1021 42.6785 3.58057 33.4 3.58057ZM40.2337 17.3426C40.2407 17.4861 40.2425 17.6296 40.2425 17.7696C40.2425 22.1446 36.9157 27.1863 30.8292 27.1863C29.0307 27.1893 27.2697 26.6728 25.7577 25.6988C26.015 25.7303 26.2792 25.7426 26.547 25.7426C28.0975 25.7426 29.5237 25.2158 30.656 24.3268C29.966 24.3133 29.2974 24.0848 28.7434 23.6732C28.1894 23.2617 27.7777 22.6875 27.5655 22.0308C28.061 22.125 28.5715 22.1053 29.0582 21.9731C28.3093 21.8216 27.6358 21.4158 27.152 20.8245C26.6681 20.2331 26.4037 19.4926 26.4035 18.7286V18.6883C26.8497 18.9351 27.3607 19.0856 27.9032 19.1031C27.2011 18.6357 26.7041 17.9177 26.5138 17.0961C26.3235 16.2744 26.4543 15.411 26.8795 14.6826C27.7106 15.7046 28.7472 16.5406 29.922 17.1366C31.0968 17.7326 32.3836 18.0752 33.6992 18.1423C33.532 17.4324 33.604 16.687 33.904 16.0222C34.204 15.3574 34.7153 14.8103 35.3584 14.466C36.0014 14.1218 36.7402 13.9996 37.4598 14.1185C38.1794 14.2374 38.8396 14.5907 39.3377 15.1236C40.0783 14.9771 40.7884 14.7054 41.4377 14.3203C41.1909 15.0871 40.6742 15.7381 39.9835 16.1526C40.6395 16.0736 41.28 15.8972 41.884 15.6293C41.4403 16.2941 40.8815 16.8743 40.2337 17.3426Z" fill="white"/>
<defs>
<filter id="filter0_d" x="0" y="0" width="67" height="67" filterUnits="userSpaceOnUse" color-interpolation-filters="sRGB">
<feFlood flood-opacity="0" result="BackgroundImageFix"/>
<feColorMatrix in="SourceAlpha" type="matrix" values="0 0 0 0 0 0 0 0 0 0 0 0 0 0 0 0 0 0 127 0"/>
<feOffset dy="13"/>
<feGaussianBlur stdDeviation="9"/>
<feColorMatrix type="matrix" values="0 0 0 0 0.0658854 0 0 0 0 0.0730469 0 0 0 0 0.1375 0 0 0 0.08 0"/>
<feBlend mode="normal" in2="BackgroundImageFix" result="effect1_dropShadow"/>
<feBlend mode="normal" in="SourceGraphic" in2="effect1_dropShadow" result="shape"/>
</filter>
</defs>
</svg>
